<svg width="29" height="24" viewBox="0 0 29 24" fill="none" xmlns="http://www.w3.org/2000/svg">
<path d="M16.4328 0.183319C16.3747 0.241364 16.3286 0.310293 16.2971 0.386168C16.2657 0.462042 16.2495 0.543371 16.2495 0.625507C16.2495 0.707642 16.2657 0.788971 16.2971 0.864845C16.3286 0.94072 16.3747 1.00965 16.4328 1.06769L26.6156 11.2505L0.624996 11.2505C0.459236 11.2505 0.300264 11.3164 0.183056 11.4336C0.0658455 11.5508 -3.8147e-06 11.7097 -3.8147e-06 11.8755C-3.8147e-06 12.0413 0.0658455 12.2002 0.183056 12.3174C0.300264 12.4347 0.459236 12.5005 0.624996 12.5005L26.6156 12.5005L16.4328 22.6833C16.3747 22.7414 16.3287 22.8103 16.2973 22.8862C16.2658 22.9621 16.2496 23.0434 16.2496 23.1255C16.2496 23.2076 16.2658 23.2889 16.2973 23.3648C16.3287 23.4407 16.3747 23.5096 16.4328 23.5677C16.4909 23.6258 16.5598 23.6718 16.6357 23.7033C16.7116 23.7347 16.7929 23.7509 16.875 23.7509C16.9571 23.7509 17.0384 23.7347 17.1143 23.7033C17.1902 23.6718 17.2591 23.6258 17.3172 23.5677L28.5672 12.3177C28.6253 12.2596 28.6714 12.1907 28.7028 12.1148C28.7343 12.039 28.7505 11.9576 28.7505 11.8755C28.7505 11.7934 28.7343 11.712 28.7028 11.6362C28.6714 11.5603 28.6253 11.4914 28.5672 11.4333L17.3172 0.183319C17.2591 0.125208 17.1902 0.0791092 17.1143 0.047657C17.0385 0.0162029 16.9571 1.52588e-05 16.875 1.52588e-05C16.7929 1.52588e-05 16.7115 0.0162029 16.6357 0.047657C16.5598 0.0791092 16.4909 0.125208 16.4328 0.183319Z" fill="#EAF6F3"/>
</svg>
