<svg width="213" height="45" viewBox="0 0 213 45" fill="none" xmlns="http://www.w3.org/2000/svg">
<path fill-rule="evenodd" clip-rule="evenodd" d="M57.4708 8.54539C57.4733 8.84741 57.8004 9.61675 58.1978 10.2545C58.8212 11.2553 59.0292 11.4142 59.7165 11.4142C60.9146 11.4142 63.2145 12.081 64.5573 12.8179C66.9689 14.1413 68.7261 16.9378 68.992 19.8756C69.3686 24.0367 67.4983 27.9682 63.9476 30.4796C61.9673 31.8799 60.4055 32.4255 57.9118 32.5884C56.1357 32.7044 55.53 32.6392 54.108 32.1782C51.8335 31.4409 49.9048 29.8607 48.8056 27.8339L47.9778 26.3079H46.0622C44.5375 26.3079 44.1466 26.3812 44.1466 26.6671C44.1466 27.368 45.3042 29.6255 46.4398 31.1388C49.9632 35.835 55.2465 37.8031 61.3723 36.7015C64.2248 36.1885 66.5991 34.8395 69.0175 32.3577C72.638 28.6421 73.9172 23.4923 72.4881 18.3867C70.841 12.5029 64.9073 8.02093 58.7376 8.00018C57.5781 7.99652 57.4667 8.04437 57.4708 8.54539ZM53.4703 8.82666C48.9594 10.2689 44.8492 14.4508 43.7962 18.6697C43.2462 20.8744 43.0665 23.336 43.3939 24.1818C43.6553 24.8561 43.6785 24.8627 45.5369 24.7922L47.416 24.7209L47.5652 22.8897C47.647 21.8825 47.9439 20.3443 48.2246 19.4715C49.1928 16.4605 52.4891 13.1966 55.4857 12.282C56.5096 11.9695 56.9819 11.7016 56.9819 11.4333C56.9819 10.7855 55.3131 8.48288 54.8563 8.50071C54.627 8.50974 54.0031 8.65648 53.4703 8.82666ZM10.3027 10.1209C10.0664 10.2093 10 12.7483 10 21.6892V33.1443H11.7817H13.5634L13.7087 28.9326C13.7886 26.6163 13.8641 22.7471 13.8762 20.3343C13.8884 17.9218 13.9252 15.9209 13.9579 15.888C13.9906 15.855 16.0716 18.9451 18.5824 22.7547C21.0931 26.5643 23.4029 29.8192 23.7153 29.9879C24.2016 30.2501 24.3585 30.2269 24.8015 29.8272C25.3662 29.3177 25.2982 29.4136 28.6935 24.3288C29.984 22.3958 31.3731 20.3199 31.7802 19.7156C32.1873 19.1113 32.9296 17.9882 33.4294 17.2198C33.9295 16.4512 34.393 15.8196 34.4596 15.8157C34.5262 15.812 34.5807 19.6819 34.5807 24.4157V33.0223L36.46 33.0936L38.3393 33.1649L38.2763 21.6181L38.2133 10.0714H36.0338H33.8542L29.8583 16.1341C27.6606 19.4688 25.4883 22.7776 25.0311 23.4871L24.1994 24.7773L22.8525 22.6809C19.2164 17.0218 15.091 10.7592 14.7515 10.3829C14.4502 10.0489 13.9828 9.96663 12.4886 9.9847C11.4528 9.99715 10.4693 10.0584 10.3027 10.1209ZM77.967 10.6215C77.8607 10.7948 77.6956 28.9668 77.7731 31.9846L77.8089 33.3885H79.6252H81.4415V25.0871C81.4415 17.245 81.5314 16.1495 82.0954 17.1185C82.202 17.3014 82.688 17.9333 83.1757 18.5224C84.3638 19.9578 91.8531 29.3838 92.4445 30.1878C92.7022 30.5382 93.3955 31.4062 93.9854 32.1169L95.058 33.4088L96.7864 33.3377L98.5148 33.2664V21.9131V10.5597L96.9654 10.486C96.1129 10.4457 95.329 10.5006 95.2232 10.608C95.1174 10.7157 95.0094 14.4572 94.983 18.9221C94.9566 23.3873 94.8626 27.0404 94.7737 27.0404C94.6848 27.0404 94.2666 26.5736 93.8442 26.0027C93.1141 25.0161 92.2064 23.8871 90.1637 21.4247C89.6624 20.8205 87.8737 18.5681 86.1886 16.4195C81.0347 9.84773 81.6709 10.4376 79.7395 10.4376C78.8268 10.4376 78.029 10.5204 77.967 10.6215ZM103.843 10.9765C103.769 11.2844 103.739 16.4256 103.775 22.4014L103.843 33.2664H105.659H107.475V21.9131V10.5597L105.727 10.4882C104.077 10.4205 103.971 10.4481 103.843 10.9765ZM111.391 10.6005C111.103 10.89 111.213 13.5729 111.52 13.7643C111.68 13.8639 113.475 13.9591 115.509 13.9757C117.544 13.9923 119.266 14.0643 119.337 14.1359C119.408 14.2074 119.477 17.4972 119.49 21.4467C119.503 25.396 119.584 29.6712 119.67 30.9469L119.826 33.2664H121.643H123.459L123.522 23.6832L123.585 14.1L126.065 14.0983C127.429 14.0973 129.28 14.0265 130.179 13.9408L131.814 13.7853V12.1113V10.4376H121.683C116.111 10.4376 111.479 10.5109 111.391 10.6005ZM134.091 10.7777C134.015 10.9757 134.298 11.612 134.718 12.1916C135.675 13.5135 139.479 18.9932 141.868 22.492L143.68 25.1462V29.2781V33.41L145.436 33.3382L147.192 33.2664L147.313 29.1157L147.434 24.965L148.597 23.2559C149.236 22.3159 150.38 20.6637 151.139 19.5843C154.691 14.5346 157 11.0597 157 10.7631C157 10.5197 156.527 10.4386 155.123 10.4413C154.091 10.4435 153.126 10.5258 152.98 10.6244C152.833 10.723 152.44 11.2433 152.105 11.7805C151.288 13.0926 146.134 20.4908 145.769 20.8751C145.452 21.2099 145.272 20.975 140.691 14.2221L138.206 10.5597L136.217 10.4886C134.641 10.4325 134.2 10.4926 134.091 10.7777Z" fill="#0B1514"/>
<path fill-rule="evenodd" clip-rule="evenodd" d="M183.709 5.7242C183.628 5.85986 184.681 7.85469 185.496 9.11117C185.58 9.24095 186.11 9.35636 186.858 9.40795C189.28 9.57494 191.624 10.4408 193.242 11.7653C194.046 12.4232 195.507 14.3111 196.014 15.3469C196.601 16.5462 197.032 18.6242 197.028 20.243C197.02 23.9911 195.646 27.2098 192.807 30.1338C188.653 34.412 182.483 35.2018 178.013 32.0275C176.41 30.8894 175.289 29.4658 174.372 27.4027L173.889 26.3176L171.789 26.2502C170.633 26.2132 169.623 26.2399 169.543 26.31C169.341 26.4872 169.669 27.5722 170.409 29.1718C172.338 33.3441 176.271 36.7378 180.72 38.0685C181.834 38.402 182.319 38.4458 184.896 38.4458C188.357 38.4458 189.539 38.1887 192.027 36.8951C194.03 35.8536 195.263 34.9272 196.733 33.3585C198.865 31.0848 200.169 28.523 200.998 24.9782C201.126 24.4304 201.205 23.1576 201.2 21.7134C201.192 19.6831 201.131 19.1113 200.768 17.6935C200.018 14.759 198.902 12.6491 196.955 10.4826C195.67 9.0524 194.442 8.12273 192.54 7.1405C190.886 6.28641 190.457 6.13427 188.757 5.80027C187.304 5.51444 183.865 5.46269 183.709 5.7242ZM179.774 6.75688C176.612 8.10576 175.253 8.99918 173.359 10.9738C170.32 14.1418 168.785 17.8889 168.8 22.1006C168.804 23.1665 168.851 24.0848 168.905 24.1411C168.96 24.1974 169.973 24.2436 171.158 24.2436H173.313L173.434 22.9377C173.675 20.3619 174.031 18.9657 174.898 17.1982C175.88 15.1949 176.639 14.1704 178.237 12.6901C179.467 11.5512 181.707 10.2371 182.771 10.0302C183.119 9.96264 183.32 9.83042 183.32 9.66946C183.32 9.31506 181.419 6.20381 181.208 6.21214C181.113 6.21589 180.468 6.46108 179.774 6.75688Z" fill="#00AA85"/>
</svg>
