<svg width="36" height="36" viewBox="0 0 36 36" fill="none" xmlns="http://www.w3.org/2000/svg">
<path fill-rule="evenodd" clip-rule="evenodd" d="M16.7092 1.2242C16.6283 1.35986 17.6808 3.35469 18.4964 4.61117C18.5805 4.74095 19.1102 4.85636 19.858 4.90795C22.2797 5.07494 24.6245 5.94078 26.2425 7.26534C27.0461 7.92321 28.507 9.81111 29.0142 10.8469C29.6014 12.0462 30.0318 14.1242 30.0282 15.743C30.02 19.4911 28.6465 22.7098 25.8075 25.6338C21.6536 29.912 15.4835 30.7018 11.0132 27.5275C9.41035 26.3894 8.28949 24.9658 7.37209 22.9027L6.88936 21.8176L4.78869 21.7502C3.63316 21.7132 2.62278 21.7399 2.54319 21.81C2.3413 21.9872 2.66958 23.0722 3.40921 24.6718C5.33809 28.8441 9.27103 32.2378 13.72 33.5685C14.8345 33.902 15.319 33.9458 17.8964 33.9458C21.357 33.9458 22.5393 33.6887 25.0269 32.3951C27.03 31.3536 28.2628 30.4272 29.7337 28.8585C31.8652 26.5848 33.1689 24.023 33.998 20.4782C34.1262 19.9304 34.2048 18.6576 34.1998 17.2134C34.1925 15.1831 34.1312 14.6113 33.7686 13.1935C33.0181 10.259 31.9023 8.14913 29.9554 5.98257C28.6703 4.5524 27.4421 3.62273 25.54 2.6405C23.8863 1.78641 23.4567 1.63427 21.7576 1.30027C20.3037 1.01444 16.8654 0.962689 16.7092 1.2242ZM12.7743 2.25688C9.61223 3.60576 8.25292 4.49918 6.35903 6.47377C3.32048 9.64183 1.78512 13.3889 1.8001 17.6006C1.80388 18.6665 1.85132 19.5848 1.90553 19.6411C1.95975 19.6974 2.9736 19.7436 4.15844 19.7436H6.31269L6.43452 18.4377C6.67486 15.8619 7.03088 14.4657 7.89785 12.6982C8.88049 10.6949 9.6395 9.6704 11.2376 8.19011C12.467 7.05116 14.7072 5.73706 15.7716 5.53023C16.1191 5.46264 16.3204 5.33042 16.3204 5.16946C16.3204 4.81506 14.4192 1.70381 14.2079 1.71214C14.1129 1.71589 13.4678 1.96108 12.7743 2.25688Z" fill="#00AA85"/>
</svg>
